<?xml version="1.0" encoding="utf-8"?>
<!-- Generator: Adobe Illustrator 16.0.0, SVG Export Plug-In . SVG Version: 6.00 Build 0)  -->
<!DOCTYPE svg PUBLIC "-//W3C//DTD SVG 1.1//EN" "http://www.w3.org/Graphics/SVG/1.1/DTD/svg11.dtd">
<svg version="1.1" id="Layer_1" xmlns="http://www.w3.org/2000/svg" xmlns:xlink="http://www.w3.org/1999/xlink" x="0px" y="0px"
	 width="841.89px" height="248.988px" viewBox="0 0 841.89 248.988" enable-background="new 0 0 841.89 248.988"
	 xml:space="preserve">
<path fill="#010101" d="M88.496,213.124H56.572V108.16c0-3.978-1.843-5.969-5.51-5.969c-1.844,0-3.224,0.457-4.14,1.376
	c-0.924,0.918-1.378,2.379-1.378,4.363v105.194H13.619V52.348h31.926v34.451c1.991-1.681,4.63-2.906,7.926-3.67
	c3.288-0.767,7.234-1.154,11.832-1.154c6.733,0,12.281,1.765,16.64,5.287c4.368,3.524,6.554,7.808,6.554,12.854V213.124
	L88.496,213.124z"/>
<path fill="#010101" d="M128,213.124H96.078V82.894H128V213.124L128,213.124z"/>
<path fill="#010101" d="M209.306,136.866H177.38v-28.435c0-4.004-1.838-6.013-5.52-6.013c-1.838,0-3.208,0.462-4.136,1.386
	c-0.906,0.919-1.376,2.381-1.376,4.37v104.95h-31.924V82.894h31.924v4.307c1.84-1.508,4.481-2.758,7.929-3.743
	c3.448-0.988,7.391-1.484,11.828-1.484c6.736,0,12.292,1.806,16.649,5.402c4.364,3.602,6.552,8.005,6.552,13.21V136.866
	L209.306,136.866z"/>
<path fill="#010101" d="M290.609,188.549c0,9.642-3.829,16.694-11.488,21.128c-6.122,3.52-14.847,5.282-26.181,5.282
	c-11.334,0-20.065-1.918-26.187-5.742c-7.344-4.589-11.024-11.867-11.024-21.823v-77.856c0-9.794,3.604-16.996,10.8-21.592
	c6.279-3.979,15.078-5.972,26.412-5.972c11.177,0,19.907,1.765,26.181,5.287c7.663,4.287,11.491,11.332,11.491,21.129v49.614
	h-42.951v30.13c0,2.129,0.454,3.763,1.376,4.906c0.919,1.145,2.296,1.713,4.134,1.713c1.835,0,3.218-0.568,4.134-1.709
	c0.924-1.143,1.376-2.777,1.376-4.91v-25.993h31.93v26.408H290.609z M258.679,138.25v-29.668c0-2.133-0.457-3.727-1.373-4.798
	c-0.917-1.054-2.299-1.593-4.134-1.593c-1.536,0-2.837,0.535-3.905,1.593c-1.074,1.071-1.605,2.665-1.605,4.798v29.668H258.679z"/>
<path fill="#010101" d="M372.605,213.124h-24.117l-2.756-4.364c-3.064,2.301-4.902,3.603-5.511,3.904
	c-3.219,1.528-7.584,2.296-13.095,2.296c-9.342,0-16.581-2.146-21.706-6.426c-5.128-4.293-7.696-9.266-7.696-14.937v-93.482
	c0-5.048,2.146-9.329,6.427-12.854c4.291-3.522,9.876-5.287,16.775-5.287c4.286,0,8.184,0.46,11.711,1.379
	c3.521,0.922,6.197,2.069,8.04,3.445V52.346h31.929V213.124z M340.677,188.778V107.93c0-1.835-0.499-3.253-1.492-4.251
	c-0.998-0.996-2.335-1.488-4.015-1.488c-3.679,0-5.516,1.988-5.516,5.969v80.618c0,1.988,0.456,3.483,1.377,4.476
	c0.917,0.999,2.294,1.495,4.139,1.495c1.833,0,3.215-0.496,4.135-1.495C340.221,192.261,340.677,190.766,340.677,188.778z"/>
<path fill="#F15B30" d="M138.6,48.064L98.951,26.529c-1.223-0.657-2.83-0.758-4.161-0.246c-1.348,0.514-2.177,1.541-2.177,2.667
	v43.067c0,1.124,0.829,2.158,2.177,2.658c0.57,0.222,1.185,0.331,1.818,0.331c0.819,0,1.644-0.192,2.343-0.568L138.6,52.902
	c1.052-0.56,1.654-1.453,1.654-2.426C140.254,49.532,139.652,48.628,138.6,48.064z"/>
<path fill="#F15B30" d="M383.718,64.278h50.655l25.842,66.928v-26.008c0-5.083-0.213-8.515-0.634-10.295
	c-0.415-1.781-1.542-3.376-3.34-4.786V64.278h47.778v25.839c-1.695,1.64-2.898,2.994-3.604,4.065
	c-0.704,1.075-1.192,2.163-1.438,3.262c-0.262,1.104-0.378,2.415-0.378,3.94v3.814v107.925h-45.073l-28.807-67.01v23.297
	c0,4.294,0.295,7.537,0.886,9.741c0.599,2.201,2.135,3.984,4.621,5.334v28.634h-46.509v-27.276c2.259-1.301,3.733-2.796,4.404-4.49
	c0.688-1.691,1.077-4.009,1.192-6.949v-4.993v-62.773c0-5.761-0.344-9.642-1.016-11.648c-0.675-2.003-2.2-3.631-4.58-4.873V64.278
	L383.718,64.278z"/>
<path fill="#F15B30" d="M662.586,64.278h57.438v25.839c-3.109,1.526-4.661,5.002-4.661,10.426c0,1.524,0.172,3.556,0.508,6.094
	l5.424,36.766l15.072-79.125h28.64l16.43,79.125l5.429-39.562c0-3.613-0.312-6.506-0.934-8.684
	c-0.626-2.172-2.125-3.855-4.495-5.041V64.278h50.497v25.839c-1.759,1.815-3.037,3.955-3.856,6.441
	c-0.818,2.485-1.801,6.299-2.926,11.438l-20.415,105.126h-45.147l-12.291-70.99l-13.726,70.99h-45.061l-17.708-105.126
	c-1.014-5.704-3.761-11.663-8.217-17.879V64.278L662.586,64.278z"/>
<g>
	<path fill="#F15B30" d="M598.62,114.686h-22.24c-2.323,0-3.692,1.299-3.692,3.632v3.883h29.507v-4.099
		C602.194,115.765,600.94,114.686,598.62,114.686z"/>
	<path fill="#F15B30" d="M656.396,115.507c-3.509-8.854-8.426-16.709-14.762-23.597c-6.324-6.881-13.724-12.417-22.201-16.594
		c-8.476-4.179-17.573-6.638-27.285-7.371c-1.352-0.12-3.266-0.192-5.717-0.192c-9.583,0-18.802,1.757-27.65,5.258
		c-8.849,3.504-16.712,8.423-23.599,14.747c-6.882,6.335-12.44,13.736-16.677,22.209c-4.244,8.484-6.724,17.584-7.478,27.284
		c-0.117,1.358-0.171,3.263-0.171,5.722c0,9.579,1.745,18.803,5.252,27.646c3.504,8.846,8.42,16.721,14.746,23.601
		c6.322,6.889,13.734,12.433,22.212,16.685c8.474,4.234,17.569,6.73,27.282,7.457c1.227,0.124,3.138,0.193,5.713,0.193
		c9.59,0,18.802-1.755,27.663-5.26c8.839-3.499,16.732-8.413,23.678-14.739c6.944-6.335,12.509-13.763,16.679-22.316
		c4.175-8.538,6.636-17.658,7.369-27.371c0.121-1.349,0.195-3.257,0.195-5.706C661.646,133.567,659.895,124.351,656.396,115.507z
		 M626.937,165.614c0,3.864-3.15,6.999-7.039,6.999h-66.396c-3.886,0-7.04-3.135-7.04-6.999v-36.373c0-3.884,3.154-7.04,7.04-7.04
		h12.334v-7.589c0-2.379,2.529-6.742,6.705-6.742h29.67c4.037,0,6.736,4.458,6.736,6.742v7.589h10.95
		c3.889,0,7.039,3.156,7.039,7.04V165.614L626.937,165.614z"/>
</g>
</svg>
