<svg id="Layer_1" data-name="Layer 1" xmlns="http://www.w3.org/2000/svg" viewBox="0 0 18 15"><defs><style>.cls-1{fill:#fff;}</style></defs><title>icon-twitter</title><path class="cls-1" d="M-152,358.776a7.243,7.243,0,0,1-2.121.6,3.775,3.775,0,0,0,1.623-2.094,7.267,7.267,0,0,1-2.346.918,3.643,3.643,0,0,0-2.7-1.2,3.741,3.741,0,0,0-3.692,3.786,3.849,3.849,0,0,0,.095.862,10.4,10.4,0,0,1-7.612-3.957,3.855,3.855,0,0,0-.5,1.905,3.813,3.813,0,0,0,1.643,3.152,3.625,3.625,0,0,1-1.674-.473v0.047a3.764,3.764,0,0,0,2.963,3.713,3.521,3.521,0,0,1-.973.133,3.573,3.573,0,0,1-.694-0.067,3.706,3.706,0,0,0,3.449,2.628,7.291,7.291,0,0,1-4.586,1.621A7.233,7.233,0,0,1-170,370.3a10.274,10.274,0,0,0,5.661,1.7c6.794,0,10.507-5.769,10.507-10.774,0-.165,0-0.328-0.01-0.49a7.594,7.594,0,0,0,1.842-1.96" transform="translate(170 -357)"/></svg>