<?xml version="1.0" encoding="utf-8"?>
<!-- Generator: Adobe Illustrator 19.0.0, SVG Export Plug-In . SVG Version: 6.00 Build 0)  -->
<svg version="1.1" id="Layer_1" xmlns="http://www.w3.org/2000/svg" xmlns:xlink="http://www.w3.org/1999/xlink" x="0px" y="0px"
	 viewBox="1 -1 20 20" style="enable-background:new 1 -1 20 20;" xml:space="preserve">
<style type="text/css">
	.st0{enable-background:new    ;}
	.st1{fill:#FFFFFF;}
</style>
<g class="st0">
	<path class="st1" d="M19.305,19.055c-0.398,0-0.785-0.164-1.055-0.445l-4.02-4.008c-1.371,0.949-3.012,1.453-4.675,1.453
		c-4.559,0-8.25-3.691-8.25-8.25c0-4.559,3.691-8.25,8.25-8.25c4.558,0,8.25,3.691,8.25,8.25c0,1.664-0.504,3.304-1.453,4.675
		l4.02,4.02c0.27,0.27,0.434,0.656,0.434,1.055C20.805,18.375,20.125,19.055,19.305,19.055z M9.555,2.555
		c-2.895,0-5.25,2.355-5.25,5.25c0,2.894,2.355,5.25,5.25,5.25c2.894,0,5.25-2.355,5.25-5.25C14.805,4.911,12.449,2.555,9.555,2.555
		z"/>
</g>
</svg>
