<svg xmlns="http://www.w3.org/2000/svg" width="13" height="16" viewBox="0 0 13 16">
  <defs>
    <style>
      .cls-1 {
        fill: #1485cc;
        fill-rule: evenodd;
      }
    </style>
  </defs>
  <path id="Pin" class="cls-1" d="M1378.95,377.265l-4.32,6.176a1.412,1.412,0,0,1-2.27,0l-4.32-6.176a5.626,5.626,0,0,1-1.04-3.254,6.515,6.515,0,0,1,12.99,0A5.626,5.626,0,0,1,1378.95,377.265Zm-5.46-7.755a4.705,4.705,0,0,0-4.87,4.5,4.231,4.231,0,0,0,.78,2.44l4.09,5.852,4.1-5.853a4.216,4.216,0,0,0,.77-2.439A4.7,4.7,0,0,0,1373.49,369.51Zm0,7a2.509,2.509,0,1,1,2.71-2.5A2.607,2.607,0,0,1,1373.49,376.512Zm0-3.5a1,1,0,1,0,1.09,1A1.047,1.047,0,0,0,1373.49,373.011Z" transform="translate(-1367 -368)"/>
</svg>
