<?xml version="1.0" encoding="utf-8"?>
<!-- Generator: Adobe Illustrator 19.2.1, SVG Export Plug-In . SVG Version: 6.00 Build 0)  -->
<svg version="1.1" id="Layer_1" xmlns="http://www.w3.org/2000/svg" xmlns:xlink="http://www.w3.org/1999/xlink" x="0px" y="0px"
	 viewBox="0 0 16 16" style="enable-background:new 0 0 16 16;" xml:space="preserve">
<style type="text/css">
	.st0{fill:#C5C5C5;}
</style>
<path id="Star" class="st0" d="M7.4,0.4l-2,4.4l-4.9,1C0.2,5.9-0.1,6.2,0,6.5c0,0.1,0.1,0.2,0.2,0.3l3.4,3.4l-1,4.9
	c-0.1,0.2,0,0.5,0.2,0.6C3,15.9,3.1,16,3.3,16c0.1,0,0.2,0,0.3-0.1L8,14l4.5,2c0.1,0,0.2,0.1,0.2,0.1c0.1,0,0.3,0,0.4-0.1
	c0.2-0.2,0.3-0.4,0.2-0.6l-1-4.9l3.4-3.4c0.2-0.2,0.2-0.6,0-0.9c-0.1-0.1-0.2-0.1-0.3-0.2l-4.9-1l-2-4.4C8.5,0.1,8.3,0,8,0"/>
</svg>
