<svg id="Layer_1" data-name="Layer 1" xmlns="http://www.w3.org/2000/svg" viewBox="0 0 18 17"><defs><style>.cls-1{fill:#fff;}</style></defs><title>icon-linkedin</title><path class="cls-1" d="M-168.037,421H-172V409.111h3.963V421Zm-1.844-12.993h-0.025a1.973,1.973,0,0,1-2.093-2A1.992,1.992,0,0,1-169.857,404,1.776,1.776,0,0,1-168,406,1.784,1.784,0,0,1-169.882,408.007ZM-154,421h-3.979v-5.976c0-1.564-.622-2.632-1.991-2.632a2.018,2.018,0,0,0-1.9,1.415,2.733,2.733,0,0,0-.086.944V421H-165.9s0.051-10.926,0-11.889h3.941v2.153a3.753,3.753,0,0,1,3.5-2.264c2.493,0,4.452,2,4.452,5.578V421Z" transform="translate(172 -404)"/></svg>