<svg id="Layer_1" data-name="Layer 1" xmlns="http://www.w3.org/2000/svg" viewBox="0 0 19 12"><defs><style>.cls-1{fill:#fff;}</style></defs><title>icon-google</title><path class="cls-1" d="M-127,398a7.15,7.15,0,0,1-.453,3.172,5.033,5.033,0,0,1-1.937,2.079,5.526,5.526,0,0,1-2.883.749,5.4,5.4,0,0,1-2.227-.475,5.723,5.723,0,0,1-1.828-1.277,6.034,6.034,0,0,1-1.219-1.916A6.132,6.132,0,0,1-138,398a6.135,6.135,0,0,1,.453-2.333,6.032,6.032,0,0,1,1.219-1.915,5.723,5.723,0,0,1,1.828-1.277,5.394,5.394,0,0,1,2.227-.475,5.283,5.283,0,0,1,3.836,1.572l-1.554,1.563a3.078,3.078,0,0,0-2.281-.925,3.3,3.3,0,0,0-1.777.507,3.663,3.663,0,0,0-1.293,1.379,3.906,3.906,0,0,0-.477,1.9,3.905,3.905,0,0,0,.477,1.9,3.657,3.657,0,0,0,1.293,1.379,3.3,3.3,0,0,0,1.777.508,3.62,3.62,0,0,0,1.191-.188,2.978,2.978,0,0,0,.894-0.471,3.317,3.317,0,0,0,.613-0.643,2.955,2.955,0,0,0,.383-0.679A5.365,5.365,0,0,0-129,399h-3v-2h5A5.316,5.316,0,0,1-127,398Zm8-1v2h-2v2h-2v-2h-2v-2h2v-2h2v2h2Z" transform="translate(138 -392)"/></svg>