<svg id="Layer_1" data-name="Layer 1" xmlns="http://www.w3.org/2000/svg" viewBox="0 0 18 14"><defs><style>.cls-1{fill:#fff;}</style></defs><title>icon-mail</title><path class="cls-1" d="M-209,320.591a2.609,2.609,0,0,1-.492,1.5,4.754,4.754,0,0,1-1.226,1.223l-4.7,3.231q-0.1.07-.427,0.3t-0.542.378q-0.216.144-.522,0.323a3.039,3.039,0,0,1-.578.268,1.6,1.6,0,0,1-.5.09h-0.021a1.6,1.6,0,0,1-.5-0.09,3.039,3.039,0,0,1-.578-0.268q-0.306-.179-0.522-0.323t-0.542-.378q-0.326-.233-0.427-0.3-0.914-.636-2.632-1.815t-2.059-1.417a4.973,4.973,0,0,1-1.175-1.148A2.309,2.309,0,0,1-227,320.81a1.993,1.993,0,0,1,.417-1.293,1.44,1.44,0,0,1,1.19-.517h14.786a1.562,1.562,0,0,1,1.13.467A1.518,1.518,0,0,1-209,320.591Zm0,2.923v7.9a1.523,1.523,0,0,1-.472,1.123,1.555,1.555,0,0,1-1.135.467h-14.786a1.554,1.554,0,0,1-1.135-.467,1.523,1.523,0,0,1-.472-1.123v-7.9a5.3,5.3,0,0,0,1.015.865q3.636,2.446,4.992,3.43,0.572,0.418.929,0.651a5.7,5.7,0,0,0,.949.478,2.918,2.918,0,0,0,1.1.244h0.021a2.918,2.918,0,0,0,1.1-.244,5.739,5.739,0,0,0,.949-0.478q0.357-.233.929-0.651,1.708-1.223,5-3.43A5.532,5.532,0,0,0-209,323.514Z" transform="translate(227 -319)"/></svg>