<svg id="Layer_1" data-name="Layer 1" xmlns="http://www.w3.org/2000/svg" viewBox="0 0 450 400"><defs><style>.cls-1{fill:#e4e4e4;}</style></defs><title>company_logo_dummy</title><path class="cls-1" d="M569.96334,369.88682H557.55893V105.437a5.8083,5.8083,0,0,0-5.74948-5.86538H473.62532a5.8083,5.8083,0,0,0-5.74948,5.86538V369.88682H446.50762V5.91037A5.8083,5.8083,0,0,0,440.75814.045h-180a5.8083,5.8083,0,0,0-5.7495,5.86537h0V369.88682H233.6404V105.62172a5.8083,5.8083,0,0,0-5.74949-5.86538H149.66153a5.8083,5.8083,0,0,0-5.7495,5.86538h0v264.2651H131.55288a5.85068,5.85068,0,0,0-5.79477,5.773v18.47362a5.854,5.854,0,0,0,5.79477,5.91155H569.96334a5.854,5.854,0,0,0,5.79476-5.91155V375.65983A5.85067,5.85067,0,0,0,569.96334,369.88682ZM203.53477,304.21311a5.8083,5.8083,0,0,1-5.7495,5.86536H179.67662a5.81519,5.81519,0,0,1-5.47786-5.86536V285.73949a5.8083,5.8083,0,0,1,5.7495-5.86536H198.0569a5.8083,5.8083,0,0,1,5.7495,5.86536Zm0-49.74022a5.80494,5.80494,0,0,1-5.7495,5.72683H179.67662a5.813,5.813,0,0,1-5.47786-5.773V235.95309a5.8083,5.8083,0,0,1,5.74949-5.86538H198.0569a5.80831,5.80831,0,0,1,5.7495,5.86538h0Zm0-49.78639a5.8083,5.8083,0,0,1-5.74949,5.86538H179.67662a5.813,5.813,0,0,1-5.47786-5.773V186.30525a5.8083,5.8083,0,0,1,5.74949-5.86538H198.0569a5.81519,5.81519,0,0,1,5.47786,5.86538v18.38125Zm0-49.74022a5.8083,5.8083,0,0,1-5.74949,5.86538H179.67662a5.81629,5.81629,0,0,1-5.47786-5.91155V136.42648a5.80483,5.80483,0,0,1,5.56841-5.54209h18.10865a5.80831,5.80831,0,0,1,5.7495,5.86538h0ZM335.99957,36.946a5.76257,5.76257,0,0,1,5.70422-5.81919h18.10865a5.76257,5.76257,0,0,1,5.70422,5.81919V55.41967a5.76257,5.76257,0,0,1-5.70422,5.81919H341.70379a5.76257,5.76257,0,0,1-5.70422-5.81919V36.946Zm0,49.74022a5.76147,5.76147,0,0,1,5.70422-5.773h18.10865a5.76257,5.76257,0,0,1,5.70422,5.81919v18.47362a5.76257,5.76257,0,0,1-5.70422,5.81919H341.70379a5.76257,5.76257,0,0,1-5.70422-5.81919V86.68627Zm0,49.78639a5.75691,5.75691,0,0,1,5.70422-5.58827h18.10865a5.76256,5.76256,0,0,1,5.70422,5.81918v18.47362a5.75692,5.75692,0,0,1-5.70422,5.58828H341.70379a5.76256,5.76256,0,0,1-5.70422-5.81918V136.47266Zm0,49.78639a5.76256,5.76256,0,0,1,5.70422-5.81918h18.10865a5.76255,5.76255,0,0,1,5.70439,5.819l-0.00017.04637v18.47362a5.76147,5.76147,0,0,1-5.70422,5.773H341.70379a5.76147,5.76147,0,0,1-5.70422-5.773V186.25905Zm0,49.74022a5.76256,5.76256,0,0,1,5.70422-5.81918h18.10865a5.76256,5.76256,0,0,1,5.70422,5.81918v18.47362a5.76035,5.76035,0,0,1-5.70422,5.72683H341.70379a5.76256,5.76256,0,0,1-5.70422-5.81918V235.99927Zm0,50.29444a5.76257,5.76257,0,0,1,5.70422-5.8192h18.10865a5.76258,5.76258,0,0,1,5.70422,5.8192h0v18.47362a5.76257,5.76257,0,0,1-5.70422,5.8192H341.70379a5.76258,5.76258,0,0,1-5.70422-5.8192h0V286.29371ZM285.11425,36.89987a5.76257,5.76257,0,0,1,5.70422-5.81919h18.10865a5.7659,5.7659,0,0,1,5.61369,5.86537V55.41967a5.76257,5.76257,0,0,1-5.70422,5.81919H290.72794a5.76257,5.76257,0,0,1-5.70422-5.81919Zm0,49.74022a5.76257,5.76257,0,0,1,5.70422-5.81919h18.10865a5.76693,5.76693,0,0,1,5.61371,5.91008l0,0.00147v18.47362a5.76257,5.76257,0,0,1-5.70422,5.81919H290.72794a5.76257,5.76257,0,0,1-5.70422-5.81919Zm0,49.78639a5.75575,5.75575,0,0,1,5.70422-5.54209h18.10865a5.75915,5.75915,0,0,1,5.61369,5.58827v18.47362a5.76256,5.76256,0,0,1-5.70422,5.81918H290.72794a5.76256,5.76256,0,0,1-5.70422-5.81918Zm0,49.87876a5.76256,5.76256,0,0,1,5.70422-5.81918h18.10865a5.76481,5.76481,0,0,1,5.61369,5.81918v18.47362a5.76256,5.76256,0,0,1-5.70422,5.81918H290.72794a5.76481,5.76481,0,0,1-5.61369-5.81918V186.30525Zm0,49.74022a5.76256,5.76256,0,0,1,5.70422-5.81918h18.10865a5.76371,5.76371,0,0,1,5.61369,5.773v18.47362a5.76258,5.76258,0,0,1-5.61369,5.72683H290.81847a5.76256,5.76256,0,0,1-5.70422-5.81918V236.04546Zm23.81289,74.58722H290.81848a5.76258,5.76258,0,0,1-5.70422-5.8192h0V286.33987a5.76257,5.76257,0,0,1,5.70422-5.8192h18.10865a5.76481,5.76481,0,0,1,5.61367,5.81923v18.47362a5.7637,5.7637,0,0,1-5.61369,5.773Zm78.04828,59.25414H314.54081V339.03588a8.18652,8.18652,0,0,1,8.10363-8.26695h56.18209a8.1843,8.1843,0,0,1,8.14877,8.22065l0.00012,0.0463v30.85094Zm29.51709-65.1195a5.76257,5.76257,0,0,1-5.70422,5.8192H392.67964a5.76258,5.76258,0,0,1-5.70422-5.8192h0V286.29371a5.76257,5.76257,0,0,1,5.70422-5.8192h18.10865a5.76258,5.76258,0,0,1,5.70422,5.8192h0v18.47362Zm0-50.29442a5.75818,5.75818,0,0,1-5.79335,5.72683l-0.0014,0H392.58911a5.76258,5.76258,0,0,1-5.61369-5.72683V235.99927a5.76256,5.76256,0,0,1,5.70422-5.81918h18.10865a5.76256,5.76256,0,0,1,5.70422,5.81918v18.47364Zm-0.09053-49.694a5.76256,5.76256,0,0,1-5.70422,5.81918H392.58911a5.76481,5.76481,0,0,1-5.61369-5.81918V186.30525a5.76256,5.76256,0,0,1,5.70422-5.81918h18.10865a5.76481,5.76481,0,0,1,5.61369,5.81918v18.47362Zm0-49.78639a5.76256,5.76256,0,0,1-5.70422,5.81918H392.58911a5.7659,5.7659,0,0,1-5.61369-5.86538V136.47266a5.75915,5.75915,0,0,1,5.61369-5.58827h18.10865a5.76256,5.76256,0,0,1,5.70422,5.81918v18.28889Zm0-49.74022a5.76257,5.76257,0,0,1-5.70422,5.81919H392.58911a5.76693,5.76693,0,0,1-5.61371-5.91008l0-.00148V86.68627a5.76257,5.76257,0,0,1,5.70422-5.81919h18.10865a5.76257,5.76257,0,0,1,5.70422,5.81919Zm0-49.78639a5.76257,5.76257,0,0,1-5.70422,5.81919H392.58911a5.7659,5.7659,0,0,1-5.61369-5.86538V36.946a5.76257,5.76257,0,0,1,5.70422-5.81919h18.10865a5.76257,5.76257,0,0,1,5.70422,5.81919Zm110.9155,248.74725a5.80828,5.80828,0,0,1-5.74948,5.86536H503.45934a5.80828,5.80828,0,0,1-5.74948-5.86536V285.73949a5.80828,5.80828,0,0,1,5.74948-5.86536H521.568a5.80828,5.80828,0,0,1,5.74965,5.86522l-0.00017.04633v18.42742Zm0-49.74022a5.80948,5.80948,0,0,1-5.56843,5.72683H503.6404a5.8083,5.8083,0,0,1-5.74948-5.86538V235.86072a5.8083,5.8083,0,0,1,5.74948-5.86538H521.749a5.817,5.817,0,0,1,5.5686,6.04428l-0.00017.00583v18.42742Zm0-49.694a5.8083,5.8083,0,0,1-5.74948,5.86538H503.45934a5.81519,5.81519,0,0,1-5.4779-5.86538V186.30525a5.8083,5.8083,0,0,1,5.74948-5.86538h18.10865a5.81519,5.81519,0,0,1,5.4779,5.86538v18.47362Zm0-49.87876a5.8083,5.8083,0,0,1-5.74948,5.86538H503.45934a5.8083,5.8083,0,0,1-5.74948-5.86538V136.42648a5.794,5.794,0,0,1,6.0211-5.54209h18.10865a5.80953,5.80953,0,0,1,5.47786,5.63446V154.9001Z" transform="translate(-125.75811 -0.045)"/></svg>