<?xml version="1.0" encoding="utf-8"?>
<!-- Generator: Adobe Illustrator 19.0.0, SVG Export Plug-In . SVG Version: 6.00 Build 0)  -->
<svg version="1.1" id="Layer_1" xmlns="http://www.w3.org/2000/svg" xmlns:xlink="http://www.w3.org/1999/xlink" x="0px" y="0px"
	 viewBox="0 0 40 40" style="enable-background:new 0 0 40 40;" xml:space="preserve">
<style type="text/css">
	.st0{fill:#777777;}
	.st1{fill:#CCCCCC;}
</style>
<circle id="XMLID_1_" class="st0" cx="20" cy="20" r="20"/>
<g>
	<path class="st1" d="M26.982,16.419c0.012,0.156,0.012,0.312,0.012,0.469c0,4.762-3.626,10.25-10.251,10.25
		c-2.041,0-3.938-0.592-5.532-1.617c0.29,0.033,0.568,0.045,0.869,0.045c1.685,0,3.235-0.569,4.474-1.539
		c-1.584-0.034-2.911-1.071-3.369-2.499c0.224,0.033,0.446,0.056,0.681,0.056c0.323,0,0.646-0.045,0.948-0.123
		c-1.651-0.334-2.889-1.784-2.889-3.536c0-0.011,0-0.033,0-0.044c0.479,0.268,1.037,0.435,1.628,0.457
		c-0.971-0.647-1.606-1.751-1.606-3c0-0.669,0.179-1.283,0.491-1.818c1.773,2.186,4.439,3.614,7.429,3.77
		c-0.056-0.268-0.089-0.546-0.089-0.825c0-1.986,1.605-3.603,3.603-3.603c1.037,0,1.975,0.435,2.632,1.138
		c0.814-0.156,1.596-0.458,2.287-0.87c-0.268,0.837-0.837,1.54-1.584,1.985c0.725-0.078,1.428-0.279,2.074-0.558
		C28.299,15.271,27.686,15.906,26.982,16.419z"/>
</g>
</svg>
