<?xml version="1.0" encoding="utf-8"?>
<!-- Generator: Adobe Illustrator 19.0.0, SVG Export Plug-In . SVG Version: 6.00 Build 0)  -->
<svg version="1.1" id="Layer_1" xmlns="http://www.w3.org/2000/svg" xmlns:xlink="http://www.w3.org/1999/xlink" x="0px" y="0px"
	 viewBox="0 0 40 40" style="enable-background:new 0 0 40 40;" xml:space="preserve">
<style type="text/css">
	.st0{fill:#777777;}
	.st1{fill:#CCCCCC;}
</style>
<circle id="XMLID_1_" class="st0" cx="20" cy="20" r="20"/>
<g>
	<path class="st1" d="M13.486,15.627h-0.022c-1.238,0-2.03-0.848-2.03-1.907c0-1.082,0.825-1.907,2.074-1.907
		c1.261,0,2.042,0.825,2.053,1.907C15.572,14.78,14.769,15.627,13.486,15.627z M15.326,28.187h-3.681V17.133h3.681V28.187z
		 M28.566,28.187h-3.67v-5.912c0-1.483-0.535-2.499-1.862-2.499c-1.016,0-1.617,0.681-1.886,1.339
		c-0.089,0.245-0.122,0.569-0.122,0.903v6.168h-3.67c0.045-10.017,0-11.054,0-11.054h3.67v1.606h-0.022
		c0.479-0.759,1.35-1.863,3.335-1.863c2.421,0,4.228,1.584,4.228,4.975V28.187z"/>
</g>
</svg>
