<?xml version="1.0" encoding="utf-8"?>
<!-- Generator: Adobe Illustrator 19.0.0, SVG Export Plug-In . SVG Version: 6.00 Build 0)  -->
<svg version="1.1" id="Layer_1" xmlns="http://www.w3.org/2000/svg" xmlns:xlink="http://www.w3.org/1999/xlink" x="0px" y="0px"
	 viewBox="0 0 40 40" style="enable-background:new 0 0 40 40;" xml:space="preserve">
<style type="text/css">
	.st0{fill:#777777;}
	.st1{fill:#CCCCCC;}
</style>
<circle id="XMLID_1_" class="st0" cx="20" cy="20" r="20"/>
<g>
	<path class="st1" d="M28.511,23.535c-0.067,1.373-0.379,2.588-1.383,3.592c-1.004,1.005-2.22,1.316-3.592,1.384
		c-1.183,0.066-2.354,0.056-3.536,0.056s-2.354,0.011-3.536-0.056c-1.372-0.067-2.588-0.379-3.592-1.384
		c-1.004-1.004-1.315-2.219-1.383-3.592c-0.067-1.182-0.056-2.354-0.056-3.535c0-1.182-0.012-2.354,0.056-3.536
		c0.067-1.372,0.379-2.588,1.383-3.592s2.22-1.316,3.592-1.383c1.183-0.067,2.354-0.056,3.536-0.056s2.354-0.011,3.536,0.056
		c1.372,0.067,2.588,0.379,3.592,1.383s1.315,2.22,1.383,3.592c0.066,1.182,0.056,2.354,0.056,3.536
		C28.566,21.182,28.577,22.354,28.511,23.535z M14.947,13.319c-0.391,0.156-0.681,0.346-0.981,0.647
		c-0.302,0.301-0.491,0.591-0.647,0.981c-0.446,1.126-0.346,3.804-0.346,5.053s-0.101,3.926,0.346,5.053
		c0.156,0.391,0.346,0.681,0.647,0.981c0.301,0.302,0.591,0.491,0.981,0.647c1.127,0.445,3.804,0.346,5.053,0.346
		s3.926,0.1,5.053-0.346c0.391-0.156,0.681-0.346,0.981-0.647c0.302-0.301,0.491-0.591,0.647-0.981
		c0.446-1.127,0.346-3.804,0.346-5.053s0.101-3.926-0.346-5.053c-0.156-0.391-0.346-0.681-0.647-0.981
		c-0.301-0.301-0.591-0.491-0.981-0.647c-1.127-0.446-3.804-0.346-5.053-0.346S16.074,12.873,14.947,13.319z M20,24.395
		c-2.432,0-4.395-1.963-4.395-4.395s1.963-4.395,4.395-4.395s4.395,1.963,4.395,4.395S22.432,24.395,20,24.395z M20,17.145
		c-1.572,0-2.855,1.283-2.855,2.855c0,1.572,1.283,2.855,2.855,2.855s2.855-1.283,2.855-2.855
		C22.856,18.427,21.572,17.145,20,17.145z M24.573,16.453c-0.569,0-1.026-0.458-1.026-1.026s0.457-1.026,1.026-1.026
		c0.568,0,1.026,0.458,1.026,1.026S25.142,16.453,24.573,16.453z"/>
</g>
</svg>
