<?xml version="1.0" encoding="utf-8"?>
<!-- Generator: Adobe Illustrator 19.0.0, SVG Export Plug-In . SVG Version: 6.00 Build 0)  -->
<svg version="1.1" id="Layer_1" xmlns="http://www.w3.org/2000/svg" xmlns:xlink="http://www.w3.org/1999/xlink" x="0px" y="0px"
	 viewBox="-2 3 13 13" style="enable-background:new -2 3 13 13;" xml:space="preserve">
<style type="text/css">
	.st0{enable-background:new    ;}
	.st1{fill:#FFFFFF;}
</style>
<g class="st0">
	<path class="st1" d="M10.411,4.294l-4.4,4.401v6.623c0,0.232-0.143,0.438-0.348,0.526c-0.071,0.027-0.152,0.045-0.224,0.045
		c-0.151,0-0.294-0.054-0.401-0.17l-2.285-2.285c-0.107-0.106-0.169-0.25-0.169-0.401V8.695l-4.401-4.401
		c-0.169-0.161-0.214-0.411-0.125-0.625c0.089-0.206,0.295-0.348,0.527-0.348H10.01c0.232,0,0.438,0.143,0.526,0.348
		C10.626,3.884,10.581,4.134,10.411,4.294z"/>
</g>
</svg>
